<?xml version="1.0" encoding="UTF-8"?>
<svg xmlns="http://www.w3.org/2000/svg" xmlns:xlink="http://www.w3.org/1999/xlink" viewBox="0 0 45 45" width="45px" height="45px">
<g id="surface19431879">
<path style=" stroke:none;fill-rule:nonzero;fill:rgb(100%,63.529414%,0%);fill-opacity:1;" d="M 40.746094 2.09375 C 40.574219 1.90625 40.335938 1.800781 40.082031 1.800781 L 4.917969 1.800781 C 4.664062 1.800781 4.425781 1.90625 4.253906 2.09375 C 4.082031 2.277344 4 2.527344 4.019531 2.78125 L 7.1875 38.265625 C 7.222656 38.636719 7.480469 38.949219 7.839844 39.050781 L 22.246094 43.164062 C 22.328125 43.1875 22.410156 43.199219 22.496094 43.199219 C 22.578125 43.199219 22.660156 43.1875 22.742188 43.164062 L 37.164062 39.050781 C 37.519531 38.949219 37.78125 38.636719 37.8125 38.265625 L 40.980469 2.78125 C 41 2.527344 40.917969 2.277344 40.746094 2.09375 Z M 10.800781 26.105469 L 17.101562 27.851562 L 17.101562 9.898438 L 20.699219 9.898438 L 20.699219 33.300781 L 10.800781 30.554688 Z M 34.25 19.800781 L 33.300781 30.824219 L 24.300781 33.300781 L 24.300781 29.160156 L 30.375 27.488281 L 30.601562 24.113281 L 24.300781 25.199219 L 24.300781 9.898438 L 35.101562 9.898438 L 34.789062 13.5 L 27.898438 13.5 L 27.898438 20.699219 Z M 34.25 19.800781 "/>
</g>
</svg>
